<?xml version="1.0" encoding="utf-8"?>
<svg xmlns="http://www.w3.org/2000/svg" fill="none" height="33" viewBox="0 0 33 33" width="33">
<g clip-path="url(#clip0_2865_3946)">
<rect fill="white" height="16" width="18" x="8" y="9"/>
<path d="M32.0109 16.9654C32.3058 16.5616 32.5151 16.1019 32.626 15.6144C32.7369 15.1269 32.7471 14.6219 32.6559 14.1304C32.5725 13.6354 32.39 13.1624 32.1194 12.7397C31.8487 12.3169 31.4955 11.9532 31.0809 11.6704L28.8909 10.1854C28.7999 10.1226 28.7243 10.0401 28.6697 9.94399C28.6151 9.84787 28.5831 9.74064 28.5759 9.63036L28.3809 7.00536C28.3456 6.50496 28.2091 6.01695 27.9796 5.57088C27.7501 5.12482 27.4325 4.73 27.0459 4.41036C26.6623 4.08663 26.2179 3.84289 25.7388 3.69348C25.2596 3.54407 24.7554 3.49201 24.2559 3.54036L21.6459 3.81036C21.5328 3.82514 21.4179 3.81241 21.3108 3.77323C21.2037 3.73406 21.1077 3.66961 21.0309 3.58536L19.1859 1.69536C18.8354 1.33906 18.4174 1.05609 17.9565 0.862941C17.4955 0.669788 17.0007 0.570312 16.5009 0.570312C16.0011 0.570312 15.5063 0.669788 15.0453 0.862941C14.5843 1.05609 14.1664 1.33906 13.8159 1.69536L11.9709 3.58536C11.894 3.66961 11.798 3.73406 11.6909 3.77323C11.5839 3.81241 11.4689 3.82514 11.3559 3.81036L8.74586 3.54036C8.24675 3.49304 7.74321 3.54548 7.26456 3.69463C6.78591 3.84377 6.34171 4.08665 5.95782 4.40912C5.57394 4.73158 5.25803 5.12719 5.0285 5.57291C4.79897 6.01864 4.66041 6.50557 4.62086 7.00536L4.42586 9.63036C4.41731 9.74408 4.3832 9.8544 4.32606 9.9531C4.26892 10.0518 4.19023 10.1363 4.09586 10.2004L1.92086 11.6854C1.50888 11.9675 1.15736 12.329 0.886915 12.7488C0.616474 13.1686 0.432554 13.6381 0.345936 14.1299C0.259318 14.6216 0.271745 15.1257 0.38249 15.6126C0.493235 16.0995 0.700068 16.5594 0.990864 16.9654L2.53586 19.1104C2.6009 19.203 2.64412 19.3091 2.66231 19.4208C2.68049 19.5325 2.67316 19.6469 2.64086 19.7554L1.92086 22.2904C1.7875 22.7736 1.75197 23.2786 1.81637 23.7757C1.88076 24.2728 2.04378 24.7521 2.29586 25.1854C2.5454 25.6193 2.87994 25.9983 3.27944 26.2999C3.67894 26.6015 4.13519 26.8193 4.62086 26.9404L7.17086 27.5854C7.28002 27.6128 7.38142 27.6649 7.46725 27.7377C7.55307 27.8106 7.62102 27.9021 7.66586 28.0054L8.74586 30.4054C8.95061 30.8635 9.24527 31.276 9.61238 31.6181C9.97949 31.9603 10.4116 32.2253 10.883 32.3974C11.3544 32.5694 11.8556 32.6451 12.3568 32.6198C12.8581 32.5946 13.3491 32.4689 13.8009 32.2504L16.1709 31.1104C16.2732 31.0586 16.3862 31.0316 16.5009 31.0316C16.6155 31.0316 16.7286 31.0586 16.8309 31.1104L19.2009 32.2504C19.7049 32.498 20.2592 32.6263 20.8209 32.6254C21.2606 32.625 21.697 32.5489 22.1109 32.4004C22.5829 32.2267 23.0156 31.9609 23.3839 31.6184C23.7521 31.2759 24.0486 30.8636 24.2559 30.4054L25.3359 28.0054C25.3807 27.9021 25.4487 27.8106 25.5345 27.7377C25.6203 27.6649 25.7217 27.6128 25.8309 27.5854L28.3809 26.9404C28.8664 26.8181 29.3225 26.5995 29.7221 26.2977C30.1217 25.9959 30.4566 25.6169 30.707 25.1833C30.9573 24.7497 31.1181 24.2702 31.1798 23.7732C31.2414 23.2763 31.2027 22.772 31.0659 22.2904L30.3609 19.7554C30.3286 19.6469 30.3212 19.5325 30.3394 19.4208C30.3576 19.3091 30.4008 19.203 30.4659 19.1104L32.0109 16.9654ZM23.3559 14.1754L16.3959 21.1354C15.7724 21.7506 14.9318 22.0955 14.0559 22.0955C13.18 22.0955 12.3393 21.7506 11.7159 21.1354L9.64586 19.0654C9.49257 18.9146 9.37082 18.7348 9.28772 18.5365C9.20461 18.3382 9.16181 18.1254 9.16181 17.9104C9.16181 17.6953 9.20461 17.4825 9.28772 17.2842C9.37082 17.0859 9.49257 16.9061 9.64586 16.7554C9.95411 16.4527 10.3689 16.2831 10.8009 16.2831C11.2329 16.2831 11.6476 16.4527 11.9559 16.7554L14.0259 18.8254L21.0609 11.8654C21.3672 11.561 21.7819 11.3908 22.2137 11.3922C22.6455 11.3936 23.059 11.5665 23.3634 11.8729C23.6677 12.1792 23.8379 12.5939 23.8365 13.0257C23.8351 13.4575 23.6622 13.871 23.3559 14.1754Z" fill="url(#paint0_linear_2865_3946)"/>
<path d="M16.501 0.820312C16.9675 0.820327 17.4291 0.913517 17.8594 1.09375C18.2359 1.25151 18.5821 1.47322 18.8818 1.74902L19.0078 1.87109L20.8457 3.75293V3.75391C20.9496 3.86782 21.0799 3.9548 21.2246 4.00781C21.3693 4.06076 21.5249 4.07753 21.6777 4.05762L24.2812 3.78906L24.2803 3.78809C24.7465 3.74302 25.2169 3.7932 25.6641 3.93262C26.1114 4.0721 26.5267 4.29934 26.8848 4.60156L26.8867 4.60352C27.2471 4.90154 27.5429 5.26971 27.7568 5.68555C27.9707 6.10137 28.0989 6.55601 28.1318 7.02246V7.02344L28.3262 9.64844C28.3361 9.79575 28.3793 9.93897 28.4521 10.0674C28.5253 10.1963 28.6269 10.3075 28.749 10.3916L28.751 10.3926L30.9404 11.877C31.3271 12.1408 31.6568 12.4798 31.9092 12.874C32.1617 13.2684 32.3314 13.7101 32.4092 14.1719L32.4102 14.1758C32.4952 14.6338 32.4851 15.1044 32.3818 15.5586C32.2785 16.0129 32.0834 16.4421 31.8086 16.8184L31.8076 16.8193L30.2627 18.9639L30.2617 18.9668C30.175 19.0903 30.117 19.2319 30.0928 19.3809C30.0746 19.4925 30.0759 19.606 30.0957 19.7168L30.1211 19.8271L30.8252 22.3574V22.3584C30.9529 22.8078 30.9891 23.2785 30.9316 23.7422C30.8741 24.2059 30.7239 24.6539 30.4902 25.0586C30.2566 25.4631 29.9441 25.8171 29.5713 26.0986C29.1985 26.3802 28.7724 26.5842 28.3193 26.6982L25.7695 27.3428C25.6235 27.3795 25.4879 27.4495 25.373 27.5469C25.2589 27.6437 25.1675 27.7653 25.1074 27.9023L24.0283 30.3027C23.8347 30.7306 23.5577 31.1157 23.2139 31.4355C22.8704 31.755 22.4665 32.0029 22.0264 32.165C21.6395 32.3038 21.2313 32.3746 20.8203 32.375C20.2973 32.3759 19.781 32.2569 19.3115 32.0264L19.3096 32.0254L16.9395 30.8848L16.9385 30.8857C16.8025 30.8178 16.653 30.7813 16.501 30.7812C16.3854 30.7812 16.271 30.8022 16.1631 30.8418L16.0625 30.8848L13.6924 32.0254C13.2709 32.2293 12.8124 32.3465 12.3447 32.3701C11.8769 32.3937 11.4087 32.3227 10.9688 32.1621C10.5289 32.0016 10.1257 31.7547 9.7832 31.4355C9.4406 31.1162 9.16472 30.7313 8.97363 30.3037V30.3027L7.89453 27.9053H7.89551C7.83541 27.767 7.74384 27.6444 7.62891 27.5469C7.51393 27.4494 7.37766 27.3795 7.23145 27.3428H7.23242L4.68262 26.6982H4.68164C4.2286 26.5853 3.80234 26.3819 3.42969 26.1006C3.05709 25.8193 2.74543 25.4652 2.5127 25.0605L2.51172 25.0596C2.27643 24.6551 2.12456 24.2072 2.06445 23.7432C2.0044 23.2792 2.03763 22.8075 2.16211 22.3564L2.16113 22.3555L2.88184 19.8232L2.88086 19.8223C2.92285 19.679 2.93315 19.5283 2.90918 19.3809C2.88493 19.2319 2.82694 19.0903 2.74023 18.9668L2.73828 18.9639L1.19336 16.8193H1.19434C0.923051 16.4406 0.729345 16.0119 0.625977 15.5576C0.522612 15.1032 0.510951 14.6318 0.591797 14.1729C0.672665 13.714 0.844316 13.2755 1.09668 12.8838C1.34909 12.492 1.678 12.1549 2.0625 11.8916L2.06152 11.8906L4.23633 10.4062C4.36161 10.3211 4.4661 10.2092 4.54199 10.0781C4.61793 9.94695 4.66339 9.80055 4.6748 9.64941V9.64844L4.87012 7.02539C4.90704 6.55866 5.03663 6.10374 5.25098 5.6875C5.46527 5.27137 5.7598 4.90168 6.11816 4.60059C6.47662 4.29948 6.89193 4.07288 7.33887 3.93359C7.78502 3.79457 8.25448 3.74433 8.71973 3.78809V3.78906L11.3232 4.05762V4.05859C11.4761 4.07859 11.6316 4.06072 11.7764 4.00781C11.9212 3.95484 12.0514 3.8678 12.1553 3.75391L12.1543 3.75293L13.9941 1.87109C14.3213 1.53853 14.7114 1.27408 15.1416 1.09375C15.572 0.913417 16.0343 0.820312 16.501 0.820312ZM22.2148 11.1426C21.7169 11.141 21.2381 11.3366 20.8848 11.6875L14.0264 18.4717L12.1328 16.5781L12.1309 16.5771L11.9922 16.4531C11.6562 16.1824 11.236 16.0332 10.8008 16.0332C10.3656 16.0332 9.94536 16.1823 9.60938 16.4531L9.4707 16.5771C9.29381 16.7511 9.15355 16.9587 9.05762 17.1875C8.96171 17.4163 8.91214 17.662 8.91211 17.9102C8.91211 18.1583 8.96172 18.4039 9.05762 18.6328C9.15317 18.8608 9.29279 19.0676 9.46875 19.2412V19.2422L11.54 21.3135C12.2102 21.9748 13.1141 22.3457 14.0557 22.3457C14.9972 22.3457 15.9011 21.9747 16.5713 21.3135L23.5322 14.3525C23.8855 14.0015 24.0853 13.5244 24.0869 13.0264C24.0885 12.5283 23.8921 12.0496 23.541 11.6963C23.19 11.343 22.7128 11.1443 22.2148 11.1426Z" stroke="white" stroke-opacity="0.89" stroke-width="0.5"/>
</g>
<defs>
<linearGradient gradientUnits="userSpaceOnUse" id="paint0_linear_2865_3946" x1="16.5033" x2="16.5033" y1="0.570312" y2="32.6254">
<stop stop-color="#FFC632"/>
<stop offset="1" stop-color="#DB6827"/>
</linearGradient>
<clipPath id="clip0_2865_3946">
<rect fill="white" height="33" width="33"/>
</clipPath>
</defs>
</svg>