<svg width="25" height="24" viewBox="0 0 25 24" fill="none" xmlns="http://www.w3.org/2000/svg">
<path d="M21.16 12.2001C21.16 11.4601 21.1 10.9201 20.97 10.3601H12.52V13.7001H17.48C17.38 14.5301 16.84 15.7801 15.64 16.62L15.6232 16.7319L18.2949 18.8016L18.48 18.8201C20.18 17.2501 21.16 14.9401 21.16 12.2001Z" fill="#4285F4"/>
<path d="M12.5197 21C14.9497 21 16.9897 20.2 18.4797 18.82L15.6397 16.62C14.8797 17.15 13.8597 17.52 12.5197 17.52C10.1398 17.52 8.11978 15.95 7.39971 13.78L7.29417 13.789L4.51607 15.939L4.47974 16.04C5.95972 18.98 8.99972 21 12.5197 21Z" fill="#34A853"/>
<path d="M7.40046 13.7799C7.21047 13.22 7.10051 12.6199 7.10051 11.9999C7.10051 11.3799 7.21047 10.7799 7.39047 10.2199L7.38543 10.1007L4.57252 7.91614L4.48048 7.95991C3.87051 9.17993 3.52051 10.55 3.52051 11.9999C3.52051 13.4499 3.87051 14.8199 4.48048 16.0399L7.40046 13.7799Z" fill="#FBBC05"/>
<path d="M12.5197 6.47997C14.2097 6.47997 15.3497 7.20997 15.9997 7.82001L18.5397 5.34C16.9798 3.89 14.9497 3 12.5197 3C8.99972 3 5.95972 5.01998 4.47974 7.95995L7.38972 10.22C8.11978 8.04999 10.1398 6.47997 12.5197 6.47997Z" fill="#EB4335"/>
</svg>
